<svg width="1947" height="1003" viewBox="0 0 1947 1003" fill="none" xmlns="http://www.w3.org/2000/svg">
<g clip-path="url(#clip0_169_299)">
<path opacity="0.16" d="M168.391 536.396C58.4195 414.962 260.394 206.187 408.477 154.406C479.113 129.706 579.17 101.845 643.4 152.506C761.657 245.781 678.482 420.22 586.605 504.089C548.838 538.564 462.772 605.793 392.987 580.107C300.911 546.215 346.195 428.268 377.498 376.759C444.46 266.569 642.847 133.366 821.528 177.211C1050.61 233.426 724.571 514.221 837.017 602.912C853.671 616.047 893.179 618.963 914.464 618.116C1136.31 609.288 1084.57 432.567 1224.25 420.469C1332.78 411.07 1295.36 578.691 1479.83 618.116C1622.46 648.6 1795.44 519.346 1766.38 416.668C1735.48 307.473 1586.62 260.106 1487.57 361.555C1311.72 541.67 1419.55 723.377 1120.99 865.174C1028.69 909.009 915.944 943.339 806.038 950.694C618.285 963.259 363.097 863.571 473.016 701.735" stroke="url(#paint0_linear_169_299)" stroke-width="40" stroke-linecap="round" stroke-dasharray="0.01 300"/>
<path d="M1526.55 124.169C1601.42 -7.79265 1802.99 89.2246 1813.18 186.682C1822.22 273.225 1616.93 332.583 1627.3 439.441C1629.75 464.657 1656.03 484.471 1673.77 504.057C1736.8 573.653 1774.32 651.563 1743.47 735.911C1726.07 783.495 1545.36 896.945 1498.22 851.839C1451.59 807.212 1537.2 793.659 1578.25 800.527C1701.75 821.189 1687.28 934.583 1609.23 982.97C1556.77 1015.49 1496.15 1032.02 1428.52 1034.28C1393.03 1035.47 1348.52 1034.31 1322.68 1013.38C1282.1 980.522 1291.4 917.388 1278.79 876.545C1253.91 795.948 1121.97 737.749 1015.47 760.617C876.264 790.507 870.573 978.927 958.675 1043.78C1001.42 1075.25 1080.98 1069.24 1100.66 1022.88C1106.31 1009.56 1092.2 993.96 1085.17 982.97C1043.33 917.514 991.354 866.86 886.391 861.341C794.239 856.495 688.343 871.604 599.837 889.848C471.864 916.226 270.474 1025.68 142.899 941.16C57.605 884.649 178.385 750.995 253.906 718.807C343.504 680.621 454.243 709.056 550.787 701.703C696.063 690.64 980.381 569.647 994.817 452.745C1002.57 389.948 920.302 351.094 845.086 340.618C659.529 314.775 458.762 335.538 277.141 287.406C170.117 259.043 214.7 103.336 302.956 72.6549C564.14 -18.1406 859.215 153.116 1092.92 220.89C1183.66 247.205 1364.49 186.682 1330.92 -20.7344" stroke="url(#paint1_linear_169_299)" stroke-width="2" stroke-linecap="round" stroke-dasharray="0.01 72"/>
<path opacity="0.2" d="M68.5366 304.505C95.7315 184.386 333.59 94.4141 419.63 199.98C498.845 297.172 198.348 492.253 285.389 570.568C313.145 595.541 561.208 557.829 608.085 555.364C867.573 541.72 1120.52 581.16 1330.92 699.798C1405.5 741.847 1534.46 825.829 1480.66 905.047C1459.77 935.799 1405.06 951.056 1364.49 962.06C1163.49 1016.57 819.64 1010.38 744.908 823.327C720.495 762.224 724.828 706.81 775.887 654.188C878.69 548.237 1079.73 530.569 1176.03 424.233C1302.73 284.323 1147.93 133.961 933.363 146.768C814.635 153.854 710.91 318.718 848.171 359.618C1039.8 416.718 1243.4 333.601 1441.93 445.138C1563.1 513.21 1477.79 656.509 1594.24 724.504C1658.25 761.874 1852.72 756.422 1818.84 849.934C1761.07 1009.41 1519.65 928.272 1374.81 906.947C1198.42 880.976 1130.09 833.643 997.902 753.011C951.014 724.411 899.203 701.258 855.916 669.391C816.892 640.664 786.702 603.87 737.163 583.871C645.611 546.911 510.596 572.483 424.793 608.577C126.895 733.892 271.903 878.721 535.801 924.051C682.185 949.196 990.93 906.947 1052.91 1172.98" stroke="url(#paint2_linear_169_299)" stroke-width="20" stroke-linecap="round" stroke-dasharray="0.01 500"/>
<path d="M73.126 361.294C73.126 318.26 92.6571 272.587 101.523 230.163C111.747 181.24 97.9541 85.8304 145.41 47.7194C165.589 31.5139 173.746 35.3684 204.786 34.4163C327.434 30.6542 414.225 146.182 426.801 222.561C431.487 251.018 405.037 378.475 426.801 387.9C555.847 443.781 889.082 281.247 945.697 465.818C992.326 617.837 559.614 740.912 431.964 802.198C396.245 819.347 268.081 872.453 289.978 918.125C324.796 990.748 665.545 947.9 739.171 920.025C771.595 907.75 799.614 886.103 824.363 866.813C836.486 857.363 848.693 847.967 860.505 838.306C863.383 835.952 867.406 827.598 868.25 830.704C875.169 856.174 679.309 1038.54 777.895 1053.06C853.465 1064.18 977.1 928.007 1002.49 897.22C1117.19 758.147 1143.85 600.954 1227.09 454.415C1253.61 407.721 1307.36 304.738 1387.15 289.076C1496.2 267.667 1517.56 364.739 1526.55 422.108C1533.39 465.767 1536.29 513.203 1531.71 557.04C1523.69 633.833 1419.32 861.708 1513.64 918.125C1548.49 938.97 1595.24 939.81 1637.56 935.229C1819.88 915.491 1749.2 742.136 1836.34 659.664C1866.17 631.428 1927.17 702.331 1903.46 754.686" stroke="url(#paint3_radial_169_299)" stroke-width="4" stroke-linecap="round" stroke-dasharray="0.01 72"/>
</g>
<defs>
<linearGradient id="paint0_linear_169_299" x1="136.915" y1="537.96" x2="1769.61" y2="537.96" gradientUnits="userSpaceOnUse">
<stop stop-color="#0036A4"/>
<stop offset="0.49" stop-color="#6A2364"/>
<stop offset="1" stop-color="#4CCEFF"/>
</linearGradient>
<linearGradient id="paint1_linear_169_299" x1="113.619" y1="521.328" x2="1813.47" y2="521.328" gradientUnits="userSpaceOnUse">
<stop stop-color="white"/>
<stop offset="0.48" stop-color="#359FAD"/>
<stop offset="1" stop-color="white"/>
</linearGradient>
<linearGradient id="paint2_linear_169_299" x1="68.5366" y1="659.492" x2="1822.77" y2="659.492" gradientUnits="userSpaceOnUse">
<stop stop-color="#AE3BD4"/>
<stop offset="0.48" stop-color="#2BC4C3"/>
<stop offset="1" stop-color="#FF00F6"/>
</linearGradient>
<radialGradient id="paint3_radial_169_299" cx="0" cy="0" r="1" gradientUnits="userSpaceOnUse" gradientTransform="translate(74.5167 35.7179) scale(917.842 509.687)">
<stop stop-color="#223885" stop-opacity="0.52"/>
<stop offset="1" stop-color="#FFB0C3" stop-opacity="0.77"/>
</radialGradient>
<clipPath id="clip0_169_299">
<rect width="1947" height="1003" fill="white"/>
</clipPath>
</defs>
</svg>
