<svg width="35" height="35" viewBox="0 0 35 35" fill="none" xmlns="http://www.w3.org/2000/svg">
<path d="M17.6116 4.37305H17.8063C19.6044 4.37961 28.7153 4.44523 31.1719 5.10586C31.9145 5.30748 32.5912 5.70047 33.1344 6.24556C33.6776 6.79066 34.0682 7.46876 34.2672 8.21211C34.4881 9.04336 34.6434 10.1437 34.7484 11.279L34.7703 11.5065L34.8184 12.0752L34.8359 12.3027C34.9781 14.3021 34.9956 16.1746 34.9978 16.5837V16.7477C34.9956 17.1721 34.9759 19.1715 34.8184 21.254L34.8009 21.4837L34.7812 21.7112C34.6719 22.9624 34.51 24.2049 34.2672 25.1193C34.0682 25.8626 33.6776 26.5408 33.1344 27.0858C32.5912 27.6309 31.9145 28.0239 31.1719 28.2255C28.6344 28.908 18.9897 28.9562 17.6531 28.9584H17.3425C16.6666 28.9584 13.8709 28.9452 10.9397 28.8446L10.5678 28.8315L10.3775 28.8227L10.0034 28.8074L9.62937 28.7921C7.20125 28.6849 4.88906 28.5121 3.82375 28.2234C3.08137 28.0219 2.40483 27.6293 1.86167 27.0846C1.31852 26.5399 0.92777 25.8622 0.728437 25.1193C0.485625 24.2071 0.32375 22.9624 0.214375 21.7112L0.196875 21.4815L0.179375 21.254C0.070795 19.7718 0.010971 18.2864 0 16.8002L0 16.5312C0.004375 16.0609 0.021875 14.4355 0.14 12.6418L0.155313 12.4165L0.161875 12.3027L0.179375 12.0752L0.2275 11.5065L0.249375 11.279C0.354375 10.1437 0.509687 9.04117 0.730625 8.21211C0.929623 7.46876 1.32023 6.79066 1.8634 6.24556C2.40657 5.70047 3.0833 5.30748 3.82594 5.10586C4.89125 4.82148 7.20344 4.64648 9.63156 4.53711L10.0034 4.5218L10.3797 4.50867L10.5678 4.50211L10.9419 4.4868C13.0237 4.41987 15.1064 4.38268 17.1894 4.37523L17.6116 4.37305ZM14 11.3949V21.9343L23.0934 16.6668L14 11.3949Z" fill="#FA4D4D"/>
</svg>
